<svg width="1200" height="1200" viewBox="0 0 1200 1200" fill="none" xmlns="http://www.w3.org/2000/svg">
<rect width="1200" height="1200" rx="48" fill="#F5F5F5"/>
<rect x="180" y="180" width="840" height="840" rx="36" fill="#111111" fill-opacity="0.06"/>
<path d="M450 455C450 406.399 489.399 367 538 367H662C710.601 367 750 406.399 750 455V491H814C840.51 491 862 512.49 862 539V785C862 811.51 840.51 833 814 833H386C359.49 833 338 811.51 338 785V539C338 512.49 359.49 491 386 491H450V455ZM522 455V491H678V455C678 446.163 670.837 439 662 439H538C529.163 439 522 446.163 522 455Z" fill="#111111" fill-opacity="0.18"/>
</svg>
